<?xml version="1.0" encoding="UTF-8"?><svg id="Capa_2" xmlns="http://www.w3.org/2000/svg" xmlns:xlink="http://www.w3.org/1999/xlink" viewBox="0 0 153.58 109.29"><defs><style>.cls-1{fill:none;}.cls-2{clip-path:url(#clippath);}.cls-3{mask:url(#mask);}.cls-4{fill:#003159;}.cls-5{fill:#fff;}.cls-6{fill:#be5716;}.cls-7{fill:#49906e;}.cls-8{fill:#2f3255;}.cls-9{mask:url(#mask-1);}</style><clipPath id="clippath"><rect class="cls-1" width="153.58" height="109.29"/></clipPath><mask id="mask" x="0" y="0" width="156.71" height="109.29" maskUnits="userSpaceOnUse"><g id="mask0_294_226"><path class="cls-5" d="m153.04,0H0v109.29h153.04V0Z"/></g></mask><mask id="mask-1" x="0" y="0" width="153.04" height="109.29" maskUnits="userSpaceOnUse"><g id="mask1_294_226"><path class="cls-5" d="m153.04,0H0v109.29h153.04V0Z"/></g></mask></defs><g id="_Слой_1"><g class="cls-2"><g><g class="cls-3"><g><path class="cls-8" d="m79.79,68.28h-.89l2.57-7h.87l2.57,7h-.89l-2.09-5.89h-.05l-2.09,5.89Zm.33-2.73h3.58v.75h-3.58v-.75Zm7.76,2.84c-.44,0-.82-.11-1.16-.33-.33-.22-.6-.54-.79-.94-.19-.41-.28-.89-.28-1.45s.09-1.03.28-1.43c.19-.41.45-.72.79-.94.34-.22.73-.33,1.17-.33.34,0,.61.06.81.17.2.11.35.24.46.38.11.14.19.26.25.35h.07v-2.58h.81v7h-.78v-.81h-.1c-.06.1-.14.22-.25.36-.11.14-.27.27-.47.39-.2.11-.47.17-.81.17Zm.11-.72c.32,0,.6-.08.82-.25.22-.17.39-.41.51-.71.12-.3.17-.65.17-1.05s-.06-.73-.17-1.03c-.11-.3-.28-.53-.51-.69-.22-.17-.5-.25-.83-.25s-.63.09-.85.26c-.23.17-.4.41-.51.71-.11.3-.17.63-.17,1s.06.71.17,1.02c.12.3.29.54.51.72.23.18.51.27.85.27Zm8.17-4.63l-1.94,5.25h-.82l-1.94-5.25h.87l1.45,4.18h.05l1.45-4.18h.87Zm1.06,5.25v-5.25h.81v5.25h-.81Zm.41-6.12c-.16,0-.29-.05-.41-.16-.11-.11-.17-.24-.17-.39s.06-.28.17-.39c.11-.11.25-.16.41-.16s.29.05.4.16c.11.11.17.24.17.39s-.06.28-.17.39c-.11.11-.25.16-.4.16Zm5.59,2.05l-.72.2c-.04-.12-.11-.24-.2-.35-.09-.12-.21-.21-.36-.29-.15-.08-.34-.11-.58-.11-.32,0-.59.07-.8.22-.21.15-.32.33-.32.56,0,.2.07.36.22.47.15.12.37.21.68.29l.78.19c.47.11.82.29,1.05.52.23.23.35.53.35.9,0,.3-.09.57-.26.81-.17.24-.41.42-.72.56-.31.14-.67.21-1.07.21-.54,0-.98-.12-1.33-.35-.35-.23-.57-.57-.67-1.02l.77-.19c.07.28.21.49.41.64.21.14.47.21.8.21.38,0,.67-.08.89-.24.22-.16.33-.36.33-.58,0-.18-.06-.33-.19-.46-.13-.13-.32-.22-.59-.28l-.88-.2c-.48-.11-.83-.29-1.06-.53-.22-.24-.33-.54-.33-.91,0-.3.08-.56.25-.79.17-.23.4-.41.69-.54.29-.13.62-.19.99-.19.52,0,.93.11,1.22.34.3.23.51.53.64.9Zm3.44,4.18c-.47,0-.89-.11-1.25-.34-.36-.23-.63-.54-.83-.95-.2-.41-.3-.88-.3-1.42s.1-1.02.3-1.43c.2-.41.48-.72.83-.95.36-.23.77-.34,1.25-.34s.89.11,1.24.34c.36.23.63.54.83.95.2.41.3.88.3,1.43s-.1,1.02-.3,1.42c-.2.41-.48.72-.83.95-.36.23-.77.34-1.24.34Zm0-.72c.36,0,.65-.09.89-.28.23-.18.4-.43.52-.73.11-.3.17-.63.17-.98s-.06-.68-.17-.98c-.11-.3-.28-.55-.52-.73-.23-.19-.53-.28-.89-.28s-.66.09-.89.28c-.23.19-.4.43-.52.73-.11.3-.17.63-.17.98s.06.68.17.98c.11.3.28.54.52.73.23.18.53.28.89.28Zm3.61.61v-5.25h.78v.79h.05c.1-.26.27-.47.52-.63.25-.16.53-.24.85-.24.06,0,.13,0,.22,0,.09,0,.16,0,.2.01v.82s-.09-.02-.19-.03c-.1-.02-.2-.02-.3-.02-.26,0-.48.05-.68.16-.2.1-.35.25-.47.44-.11.18-.17.4-.17.63v3.32h-.81Zm4.26,1.97c-.14,0-.26-.01-.37-.03-.11-.02-.18-.04-.22-.06l.21-.71c.19.05.37.07.52.05.15-.01.28-.08.4-.2.12-.12.23-.31.32-.58l.15-.41-1.94-5.27h.88l1.45,4.18h.06l1.45-4.18h.88l-2.23,6.01c-.1.27-.22.5-.37.67-.15.18-.32.31-.52.4-.19.09-.41.13-.66.13Z"/><path class="cls-8" d="m122.75,63.03c-.04-.35-.21-.61-.5-.81-.29-.19-.65-.29-1.07-.29-.31,0-.58.05-.81.15-.23.1-.41.24-.54.41-.13.18-.19.37-.19.6,0,.19.04.35.13.48.09.13.21.24.35.33.14.09.29.16.44.22.15.05.3.1.43.13l.71.19c.18.05.39.11.61.2.23.08.44.2.65.35.21.14.38.33.51.55.13.23.2.5.2.83,0,.38-.1.72-.3,1.02-.2.31-.48.55-.86.73-.38.18-.83.27-1.37.27-.5,0-.93-.08-1.3-.24-.36-.16-.65-.39-.86-.68-.21-.29-.32-.63-.35-1.01h.87c.02.26.11.48.27.66.16.17.36.3.59.38.24.08.5.12.78.12.32,0,.61-.05.87-.16.26-.11.46-.26.61-.44.15-.19.22-.41.22-.67,0-.23-.07-.42-.19-.57-.13-.15-.3-.26-.51-.36-.21-.09-.44-.17-.69-.24l-.86-.25c-.55-.16-.98-.38-1.3-.67-.32-.29-.48-.67-.48-1.14,0-.39.11-.73.32-1.02.21-.29.5-.52.86-.68.36-.16.77-.25,1.21-.25s.85.08,1.2.24c.35.16.63.38.83.66.21.28.32.59.33.95h-.82Zm4.4,5.36c-.51,0-.94-.11-1.31-.33-.36-.23-.65-.54-.84-.94-.19-.41-.29-.88-.29-1.41s.1-1.01.29-1.42c.2-.41.47-.73.83-.96.35-.23.77-.35,1.24-.35.27,0,.54.05.81.14.27.09.51.24.73.44.22.2.39.47.52.81.13.33.19.75.19,1.24v.34h-4.04v-.7h3.22c0-.3-.06-.56-.18-.79-.12-.23-.28-.42-.5-.55-.21-.13-.47-.2-.76-.2-.32,0-.6.08-.83.24-.23.16-.41.36-.54.61-.13.25-.19.52-.19.81v.46c0,.4.07.73.21,1.01.14.27.33.48.58.63.25.14.53.21.86.21.21,0,.4-.03.57-.09.17-.06.32-.15.45-.27.12-.12.22-.28.29-.46l.78.22c-.08.26-.22.5-.41.7-.19.2-.43.35-.72.46-.29.11-.61.16-.96.16Zm3.4-.11v-5.25h.78v.79h.05c.1-.26.27-.47.52-.63.25-.16.53-.24.85-.24.06,0,.13,0,.22,0,.09,0,.16,0,.2.01v.82s-.09-.02-.19-.03c-.1-.02-.2-.02-.3-.02-.26,0-.48.05-.68.16-.2.1-.35.25-.47.44-.11.18-.17.4-.17.63v3.32h-.81Zm8.03-5.25l-1.94,5.25h-.82l-1.94-5.25h.87l1.45,4.18h.05l1.45-4.18h.88Zm1.06,5.25v-5.25h.81v5.25h-.81Zm.41-6.12c-.16,0-.29-.05-.41-.16-.11-.11-.17-.24-.17-.39s.06-.28.17-.39c.11-.11.25-.16.41-.16s.29.05.4.16c.11.11.17.24.17.39s-.06.28-.17.39c-.11.11-.25.16-.4.16Zm4,6.23c-.49,0-.91-.12-1.27-.35-.35-.23-.63-.55-.82-.96-.19-.41-.29-.87-.29-1.4s.1-1,.29-1.41c.2-.41.47-.73.83-.96.36-.23.77-.35,1.24-.35.37,0,.7.07,1,.2.3.14.54.33.73.57.19.25.31.53.35.86h-.81c-.06-.24-.2-.45-.41-.64-.21-.19-.49-.28-.85-.28-.31,0-.59.08-.83.25-.24.16-.42.39-.55.69-.13.29-.2.64-.2,1.04s.06.76.19,1.06c.13.3.31.53.55.7.24.17.51.25.83.25.21,0,.4-.04.57-.11.17-.07.32-.18.43-.31.12-.14.2-.3.25-.49h.81c-.05.31-.16.59-.34.84-.18.25-.41.44-.71.59-.29.14-.63.22-1.02.22Zm5.44,0c-.51,0-.94-.11-1.31-.33-.37-.23-.65-.54-.84-.94-.2-.41-.29-.88-.29-1.41s.1-1.01.29-1.42c.2-.41.47-.73.83-.96.35-.23.77-.35,1.24-.35.27,0,.54.05.81.14.27.09.51.24.73.44.22.2.39.47.52.81.13.33.2.75.2,1.24v.34h-4.04v-.7h3.22c0-.3-.06-.56-.18-.79-.12-.23-.28-.42-.5-.55-.21-.13-.47-.2-.76-.2-.32,0-.6.08-.83.24-.23.16-.41.36-.54.61-.12.25-.19.52-.19.81v.46c0,.4.07.73.21,1.01.14.27.33.48.58.63.25.14.53.21.86.21.21,0,.4-.03.57-.09.17-.06.32-.15.45-.27.12-.12.22-.28.29-.46l.78.22c-.08.26-.22.5-.41.7-.19.2-.43.35-.72.46-.29.11-.6.16-.96.16Zm7.12-4.18l-.72.2c-.05-.12-.11-.24-.2-.35-.09-.12-.21-.21-.35-.29-.15-.08-.34-.11-.58-.11-.32,0-.59.07-.8.22-.21.15-.32.33-.32.56,0,.2.07.36.22.47.15.12.37.21.68.29l.78.19c.47.11.82.29,1.05.52.23.23.35.53.35.9,0,.3-.09.57-.26.81-.17.24-.41.42-.72.56-.31.14-.66.21-1.07.21-.54,0-.98-.12-1.33-.35-.35-.23-.57-.57-.67-1.02l.76-.19c.07.28.21.49.41.64.2.14.47.21.8.21.38,0,.68-.08.9-.24.22-.16.34-.36.34-.58,0-.18-.06-.33-.19-.46-.13-.13-.32-.22-.59-.28l-.87-.2c-.48-.11-.83-.29-1.06-.53-.22-.24-.34-.54-.34-.91,0-.3.08-.56.25-.79.17-.23.4-.41.69-.54.29-.13.62-.19.99-.19.52,0,.93.11,1.22.34.3.23.51.53.63.9Z"/><path class="cls-7" d="m39.92,55.22c0-4.92,2.65-9.21,6.59-11.56L14.62,11.66c-2.37-2.37-6.21-2.38-8.58-.02L1.79,15.88c-2.37,2.36-2.38,6.2-.02,8.58l30.27,30.37-13.23,13.17c-2.37,2.36-2.38,6.2-.02,8.58l4.24,4.25c2.36,2.37,6.21,2.38,8.58.02l14.29-14.23s.07-.1.12-.14c-3.67-2.41-6.09-6.54-6.09-11.26"/><path class="cls-4" d="m81.01,77.58l-14.26-14.26c-.53-.53-1.15-.93-1.8-1.22-2.35,3.93-6.64,6.58-11.56,6.58-4.25,0-8.03-1.97-10.5-5.04l-31.07,31.05c-2.37,2.37-2.37,6.21,0,8.58l4.24,4.24c2.37,2.37,6.21,2.37,8.58,0l30.33-30.31,13.21,13.2c2.37,2.37,6.21,2.37,8.58,0l4.24-4.24c2.37-2.37,2.37-6.21,0-8.58"/></g></g><path class="cls-4" d="m79.03,58.7l8.21-27.15h5.9l2.47,27.15h-5.03l-.39-6.06h-4.37l-1.66,6.06h-5.13Zm7.67-9.45h3.31l-.51-10.87-2.8,10.87Z"/><g class="cls-9"><g><path class="cls-4" d="m105.56,59.06c-2.51,0-4.31-.7-5.41-2.1-.93-1.19-1.4-2.89-1.41-5.11,0-.39.02-.81.05-1.24l4.78-.85c-.04.49-.07.95-.07,1.37,0,2.52.76,3.78,2.28,3.78.67,0,1.17-.21,1.52-.64.34-.43.55-.98.63-1.65.02-.21.03-.4.03-.59.01-.51-.06-1-.21-1.46-.2-.61-.46-1.13-.79-1.55-.33-.42-.81-.92-1.43-1.51l-2.75-2.64c-1.01-.96-1.74-1.95-2.2-2.96-.33-.74-.5-1.63-.51-2.67,0-.37.02-.76.06-1.16.23-2.18,1.05-3.87,2.47-5.07s3.25-1.8,5.5-1.81h.12c1,0,1.87.14,2.6.43.77.3,1.36.67,1.79,1.14.43.46.77,1.04,1.02,1.72s.4,1.35.47,2.01c.04.43.06.88.05,1.38,0,.26,0,.54-.02.84l-4.75.77c.03-.56.05-1.07.05-1.54,0-.22,0-.44-.02-.66-.02-.63-.19-1.15-.49-1.54-.27-.35-.68-.52-1.21-.52h-.15c-.64.03-1.16.27-1.56.71-.39.44-.62.99-.69,1.63-.02.16-.03.33-.03.49,0,.45.07.87.21,1.26.19.54.4.95.64,1.25.24.3.6.69,1.08,1.15l2.72,2.6c.56.55,1.03,1.08,1.43,1.59.39.51.75,1.1,1.09,1.75.33.66.56,1.38.7,2.16.08.45.12.91.12,1.38,0,.36-.02.73-.07,1.11-.21,1.98-1.02,3.59-2.42,4.86-1.41,1.26-3.15,1.89-5.23,1.89"/><path class="cls-4" d="m122.61,59.08c-1.33,0-2.46-.22-3.38-.66-.92-.44-1.6-1.07-2.06-1.87-.47-.83-.78-1.82-.93-2.98-.08-.55-.12-1.11-.12-1.7,0-.69.05-1.42.15-2.19l.93-8.92c.13-1.22.32-2.31.58-3.28.26-.96.61-1.84,1.07-2.64.46-.8,1.02-1.46,1.67-1.98.66-.52,1.45-.93,2.39-1.21.94-.28,2.01-.43,3.21-.43,1.42,0,2.61.18,3.57.53.96.36,1.7.88,2.23,1.59.52.7.87,1.53,1.03,2.48.09.52.13,1.1.13,1.74,0,.5-.03,1.04-.08,1.62l-.16,1.51h-5.24l.18-1.75c.05-.66.08-1.23.08-1.74v-.26c-.01-.57-.18-1.01-.52-1.33-.33-.32-.85-.47-1.57-.47-.46,0-.85.08-1.19.24-.33.16-.6.36-.79.59-.2.23-.36.55-.49.96-.13.41-.22.78-.28,1.11-.06.33-.11.77-.16,1.3l-1.23,11.61c-.04.47-.07.91-.07,1.31.01.32.03.61.05.88.06.62.28,1.11.63,1.46.36.35.88.52,1.57.52,1.03,0,1.78-.37,2.25-1.12.48-.75.79-1.84.94-3.27l.26-2.6h-2.72l.36-3.36h7.62l-1.47,13.94h-3.56l-.08-2.54c-1,1.94-2.61,2.91-4.82,2.91"/><path class="cls-6" d="m97.68,5.79l-4.36-4.13c-2.43-2.3-6.27-2.2-8.58.23l-29.5,31.12-13.56-12.84c-2.43-2.31-6.27-2.2-8.58.23l-4.13,4.35c-2.31,2.43-2.2,6.27.23,8.57l13.92,13.18c2.47-2.91,6.15-4.75,10.26-4.75,5.08,0,9.5,2.81,11.79,6.96.3-.22.59-.46.86-.74l31.87-33.61c2.31-2.43,2.2-6.27-.23-8.57"/></g></g></g></g></g></svg>